
<svg width="17px" height="28px" viewBox="0 0 17 30" version="1.1" xmlns="http://www.w3.org/2000/svg" xmlns:xlink="http://www.w3.org/1999/xlink">
    <g id="Page-1" stroke="none" stroke-width="1" fill="none" fill-rule="evenodd">
        <g id="Desktop-Copy-2" transform="translate(-668.000000, -197.000000)">
            <g id="Group-3" transform="translate(668.000000, 197.000000)">
                <g id="Group-2" transform="translate(1.000000, 1.000000)" stroke="#979797" stroke-linecap="square" stroke-width="0.5">
                    <path d="M0.952088452,0.145089286 L10.3378378,1.828125" id="Line-2"></path>
                    <path d="M0.149359886,0.553977273 L5.64496314,14.5" id="Line-2"></path>
                    <path d="M5.47297297,14.421875 L3.5,25.5" id="Line-2"></path>
                    <path d="M14.4481982,23.2984375 L4.20045045,25.8578125" id="Line-2"></path>
                    <path d="M14.8581081,22.1970486 L9.52702703,11.984375" id="Line-2"></path>
                    <path d="M11.1486486,2.640625 L9.32432432,11.5" id="Line-2"></path>
                </g>
                <g id="Group" fill="#D8D8D8">
                    <ellipse id="Oval" cx="1.15254237" cy="1.16666667" rx="1.15254237" ry="1.16666667"></ellipse>
                    <ellipse id="Oval" cx="16.1355932" cy="24.2083333" rx="1" ry="1"></ellipse>
                    <ellipse id="Oval" cx="12.3898305" cy="3.20833333" rx="1" ry="1"></ellipse>
                    <ellipse id="Oval" cx="4.46610169" cy="26.9791667" rx="1.00847458" ry="1.02083333"></ellipse>
                    <ellipse id="Oval" cx="8.6440678" cy="14" rx="1" ry="1"></ellipse>
                    <ellipse id="Oval" cx="6.77118644" cy="15.3125" rx="1" ry="1"></ellipse>
                    <ellipse id="Oval" cx="10.3728814" cy="12.8333333" rx="1" ry="1"></ellipse>
                </g>
            </g>
        </g>
    </g>
</svg>